<svg xmlns="http://www.w3.org/2000/svg" viewBox="0 0 1440 320">
        <path fill="#0099ff" fill-opacity="1" d="M0,32L0,224L130.9,224L130.9,0L261.8,0L261.8,288L392.7,288L392.7,32L523.6,32L523.6,128L654.5,128L654.5,224L785.5,224L785.5,128L916.4,128L916.4,320L1047.3,320L1047.3,96L1178.2,96L1178.2,192L1309.1,192L1309.1,256L1440,256L1440,0L1309.1,0L1309.1,0L1178.2,0L1178.2,0L1047.3,0L1047.3,0L916.4,0L916.4,0L785.5,0L785.5,0L654.5,0L654.5,0L523.6,0L523.6,0L392.7,0L392.7,0L261.8,0L261.8,0L130.9,0L130.9,0L0,0L0,0Z">
        </path>
    </svg>